<svg version="1.1" viewBox="0 0 2048 1344" width="300" height="197" xmlns="http://www.w3.org/2000/svg">
   <path transform="translate(1346)"
      d="m0 0h55l52 5 40 6 36 7 31 8 35 11 30 11 30 13 33 16 23 13 17 10 22 14 11 8 14 10 13 10 16 13 13 11 14 12 40 40 7 8 9 10 11 14 12 15 13 18 14 20 11 18 9 15 10 18 12 23 11 23 13 32 10 28 9 29 7 28 7 34 5 32 4 40 2 30v41l-4 49-5 37-8 42-9 36-10 32-12 32-13 30-15 31-13 23-11 19-24 36-14 19-13 16-9 11-9 10-7 8-11 12-23 23-8 7-14 13-10 8-16 13-19 14-17 12-17 11-25 15-18 10-23 12-19 9-31 13-28 10-28 9-48 12-39 7-36 5-43 4h-43l-27-2-67-9-36-7-36-9-46-15-28-11-24-11-25-12-24-13-25-15-21-14-20-14-75-50-17-10-25-12-24-8-19-4-13-2-13-1h-23l-30 3-36 7-31 8-39 11-25 6-26 5-30 4-24 2h-56l-33-3-41-7-32-8-22-7-23-8-28-12-16-8-23-12-20-12-19-13-19-14-14-12-11-9-17-16-17-17-7-8-10-11-11-14-14-18-14-21-15-25-12-23-11-23-11-28-9-28-8-31-7-37-4-32-2-21v-47l5-41 6-35 7-30 9-29 9-25 12-27 8-16 10-19 12-20 11-16 10-14 10-13 9-11 13-15 14-15 14-14 8-7 15-13 15-12 18-13 21-14 24-14 23-12 19-9 28-11 31-10 32-8 27-5 29-4 29-2h46l27 2 31 4 31 6 34 9 50 17 19 6 24 5 25 3h27l27-4 24-7 24-10 23-12 21-13 17-12 36-26 20-14 17-12 20-13 25-15 28-15 28-13 28-12 34-12 29-9 38-9 36-7 45-6z"
      fill="#007F60" />
   <path transform="translate(402,488)"
      d="m0 0h23l22 2 23 5 18 6 20 9 19 11 16 12 14 12 9 9 9 11 12 17 10 17 8 18 7 23 4 20 1 9 1 32v101l10 5 20 8 2 3-1 5-8 18-12 29-10 24-6-1-21-9-19-8-11-8-8-7-8-11-7-15-4-16-1-7-1-134-3-17-6-17-10-19-10-13-12-12-15-11-21-10-16-5-17-3h-13l-20 3-12 3-15 6-15 9-14 11-12 13-10 15-9 19-5 19-1 6v30l5 21 5 13 8 15 12 16 10 10 14 10 14 8 16 6 16 4 6 1h24l17-4 18-6 6-3 6 1 6 12 10 24 10 23 5 11-1 5-5 3-29 10-26 6-16 2h-26l-17-2-20-4-27-9-22-10-16-10-13-10-10-9-9-8-7-8-12-15-11-18-8-16-7-18-6-21-4-22-1-9v-26l3-24 6-25 6-17 8-17 12-20 10-13 11-12 14-14 16-12 21-13 19-9 24-8 19-4z"
      fill="#FCFCFA" />
   <path transform="translate(1030,488)"
      d="m0 0h37l23 3 23 6 20 8 25 13 14 10 9 7 10 9 14 14 15 20 9 15 10 21 8 24v5l-6 5-13 5-26 11-23 10-58 25-31 13-49 21-26 11-25 11-29 12-25 11-25 10-20 9-7 3-5-1-5-6-8-16-7-16-6-19-5-25-1-8v-35l2-17 5-23 7-21 9-19 9-15 10-14 12-14 13-13 17-13 15-10 21-11 18-7 22-6z"
      fill="#FCFCFA" />
   <path transform="translate(1289,396)"
      d="m0 0h38l33 1 3 4 1 387 9 3 42 18 12 5 3 4-2 6-7 15-15 37-7 16-4 1-17-8-37-15-16-7-12-8-11-11-7-10-6-14-4-18-1-11v-391l2-3z"
      fill="#FBFBF8" />
   <path transform="translate(725,396)"
      d="m0 0h16l28 1 3 3 1 387 27 12 29 12 8 4 1 1-1 7-8 18-18 44-4 8-9-3-21-9-32-13-16-8-9-7-10-10-7-11-6-14-3-13-1-14v-390l3-4z"
      fill="#FBFCF9" />
   <path transform="translate(1462,603)"
      d="m0 0 5 1 30 15 28 13 11 6v6l-4 8-4 18-1 6v28l5 22 6 15 6 11 10 14 9 10 12 10 18 11 15 6 20 5 6 1h22l21-5 16-6 16-8 11-8 4-3 4 2 14 14 7 8 13 14 9 11 8 8 1 6-4 4-14 10-15 10-15 8-20 8-21 6-20 4-9 1h-35l-26-4-26-8-19-8-16-8-15-10-11-9-10-9-13-13-8-10-9-13-10-17-10-23-7-24-4-21-1-7v-37l4-25 6-21 7-19z"
      fill="#FCFCFA" />
   <path transform="translate(1637,488)"
      d="m0 0h17l20 2 23 5 24 8 25 12 19 12 16 13 19 19 13 17 11 18 8 17 8 24 5 21 3 26v18l-3 23-7 28-9 26-2 1-23-11-27-13-20-9-3-1-1-3 7-20 4-17v-23l-3-19-5-15-8-16-7-11-11-14-12-10-16-10-18-8-18-5-10-2h-24l-18 4-19 7-16 9-9 7-4 3-4-1-12-13-7-8-15-16-9-11-9-9-1-3 10-9 18-12 18-10 18-8 19-6 17-4 15-2z"
      fill="#C2D865" />
   <path transform="translate(1132,776)"
      d="m0 0 6 3 12 13 27 27 14 16-3 5-14 11-14 10-17 10-20 9-22 7-25 5-9 1h-35l-26-4-26-8-21-9-14-7-3-5 8-14 7-10 25-40 3-4 7 1 6 4 19 7 18 4 8 1h15l16-3 17-5 21-10 11-8z"
      fill="#FBFCF9" />
   <path transform="translate(1046,570)"
      d="m0 0h11l17 3 17 5 17 8 12 8 11 9 9 9v2l-22 9-77 33-26 11-72 31-7 3h-6v-12l3-24 6-20 11-21 9-11 12-13 15-11 12-7 19-7 14-3z"
      fill="#007F60" />
</svg>
