<svg version="1.1" viewBox="0 0 2048 464" width="1280" height="290" xmlns="http://www.w3.org/2000/svg">
   <path transform="translate(1792,9)"
      d="m0 0h164l3 12 26 127 26 126 17 84 19 92 1 7h-145l-10-56v-3h-141l-2 6-14 26-13 24-2 3h-147l9-19 11-22 11-23 34-70 19-39 14-29 20-41 32-66 17-35 19-39 14-29 17-35zm62 146-43 108-9 23h73l-1-13-18-118z"
      fill="#0170AC" />
   <path transform="translate(563,9)"
      d="m0 0h164l2 5 25 123 27 131 31 152 7 34v3h-144l-3-13-8-45-44-1h-97l-2 6-18 34-10 18-1 1h-146l2-6 25-51 12-25 20-41 14-29 20-41 32-66 19-39 14-29 19-39 33-68zm63 145-11 27-16 40-25 62v3h73l-12-81-8-51z"
      fill="#0170AC" />
   <path transform="translate(227)"
      d="m0 0h39l30 5 24 7 24 10 6 4-8 78-5 47-1 5h-2l-8-10-11-9-10-6-13-5-14-3h-25l-16 3-19 7-13 7-14 10-13 12-11 14-9 16-6 17-3 14-1 11v18l3 20 5 15 8 15 11 13 10 8 12 7 18 6 12 2h20l20-4 16-6 15-8 12-9 8-7 2-2-1 18-12 113-6 4-24 10-27 9-23 5-22 3h-36l-26-4-23-6-21-9-17-10-16-13-12-11-11-12-11-15-10-17-8-18-7-21-5-25-2-16v-40l4-31 6-27 10-30 14-29 13-21 10-13 11-13 12-13 7-7 8-7 16-13 20-13 21-11 24-9 24-6z"
      fill="#0170AC" />
   <path transform="translate(951,9)" d="m0 0h145l-1 12-32 227-28 200-2 9h-145l1-13 29-206 29-207 3-20z"
      fill="#0170AC" />
   <path transform="translate(1247,247)"
      d="m0 0h187l7 10 13 22 34 56 19 32 10 16 19 32 10 16 13 22v2h-181l-4-5-18-30-17-28-6-10v-2l-5 5-10 12-10 13-33 42-3 4h-189l6-8 13-17 13-16 10-13 33-42 14-18 66-84 8-10z"
      fill="#F2842E" />
   <path transform="translate(1151,8)"
      d="m0 0h177l11 20 14 24 15 26 5 8 2 1 2-4 7-9 11-14 13-16 10-13 12-15 5-6h188l-3 5-11 14-13 16-13 17-14 17-10 13-13 16-22 28-13 16-13 17-14 17-22 28-2 2h-189l-30-52-14-24-75-130z"
      fill="#0170AC" />
   <path transform="translate(1435,10)"
      d="m0 0h188l-3 5-11 14-13 16-13 17-14 17-10 13-13 16-22 28-13 16-13 17-14 17-22 28-2 2h-13l-60-104-14-24 2-1 2-4 7-9 11-14 13-16 10-13 12-15z"
      fill="#F2842E" />
   <path transform="translate(1434,248)"
      d="m0 0 4 4 13 22 34 56 19 32 8 13 17 28 12 20 17 28 1 4h-181l-4-5-18-30-17-28-7-12 4-7 13-16 10-13 11-14 14-18 12-15 13-17 13-16z"
      fill="#0170AC" />
</svg>
