<svg width="785" height="429" viewBox="0 0 785 429" fill="none" xmlns="http://www.w3.org/2000/svg">
   <path
      d="M409 10H512L513 230L514 261L517 283L522 303L531 324L539 337L546 346L555 356L569 367L585 376L602 382L620 386L643 388L638 394L627 403L612 413L595 421L574 427L560 429H533L514 426L493 419L476 410L464 401L452 390L440 375L429 356L422 339L416 320L412 299L410 280L409 260V10Z"
      fill="#F4F4F4" />
   <path
      d="M224 0H251L270 3L286 8L305 17L319 27L331 38L339 47L346 57L354 71L361 86L367 105L371 123L374 146L375 163L376 419H272L271 188L270 165L267 145L262 126L256 111L248 96L240 85L231 75L221 66L203 55L189 49L170 44L157 42L142 41L148 34L157 26L172 16L187 9L202 4L216 1L224 0Z"
      fill="#F4F4F4" />
   <path
      d="M122 41H141L135 48L125 62L117 77L110 98L106 118L104 140V419H0V171L2 154L7 133L13 118L21 103L30 91L41 79L51 70L64 61L83 51L101 45L115 42L122 41Z"
      fill="#F4F4F4" />
   <path
      d="M681 10H784L785 242L783 270L779 290L774 305L766 321L759 332L750 343L737 356L722 367L708 375L687 383L670 387L662 388H644L648 382L658 369L668 350L674 332L678 313L680 293L681 10Z"
      fill="#F4F4F4" />
</svg>
