<svg xmlns="http://www.w3.org/2000/svg" width="24" height="24" fill="none" id="wallet">
    <path stroke="#fff" stroke-width="1"
        d="M 3 7 a 2 2 0 0 1 2 -2 h 13.5 a 2 2 0 0 1 2 2 v 9 a 2 2 0 0 1 -2 2 H 5 a 2 2 0 0 1 -2 -2 V 7 Z">
    </path>
    <path fill="#fff" fill-rule="evenodd"
        d="M 15 12 a 2 2 0 0 1 2 -2 h 4 a 1 1 0 0 1 1 1 v 2 a 1 1 0 0 1 -1 1 h -4 a 2 2 0 0 1 -2 -2 Z m 3 0 a 1 1 0 1 1 -2 0 a 1 1 0 0 1 2 0 Z"
        clip-rule="evenodd"></path>
    <path stroke="#fff" d="M 3 8.5 h 17" />
</svg>
