<svg width="24" height="24" fill="none" xmlns="http://www.w3.org/2000/svg">
   <path clip-rule="evenodd"
      d="M11.313 1c-.76 0-1.376.616-1.376 1.375L9.772 3.53a1.375 1.375 0 01-2.185.906l-.934-.7a1.375 1.375 0 00-1.945 0l-.973.972a1.372 1.372 0 000 1.944l.7.935a1.375 1.375 0 01-.904 2.185l-1.156.166c-.759 0-1.375.615-1.375 1.374v1.376c0 .758.616 1.374 1.375 1.374l1.155.166a1.375 1.375 0 01.906 2.185l-.7.934a1.374 1.374 0 000 1.945l.972.973a1.372 1.372 0 001.944 0l.935-.7a1.375 1.375 0 012.185.904l.166 1.156c0 .759.615 1.375 1.374 1.375h1.376c.758 0 1.374-.616 1.374-1.375l.166-1.155a1.375 1.375 0 012.185-.906l.934.7a1.374 1.374 0 001.945 0l.973-.972a1.374 1.374 0 000-1.944l-.7-.935a1.375 1.375 0 01.904-2.185l1.156-.166c.759 0 1.375-.615 1.375-1.374v-1.376c0-.758-.616-1.374-1.375-1.374l-1.155-.166a1.375 1.375 0 01-.906-2.185l.7-.934a1.376 1.376 0 000-1.945l-.972-.973a1.375 1.375 0 00-1.944 0l-.935.7a1.375 1.375 0 01-2.185-.904l-.166-1.156c0-.759-.615-1.375-1.374-1.375h-1.375zM12 14.75a2.75 2.75 0 100-5.5 2.75 2.75 0 000 5.5z"
      stroke="#000" stroke-width="1.5" />
</svg>
