<svg width="24" height="24" fill="none" xmlns="http://www.w3.org/2000/svg">
    <path d="M18 13.5c-.5 0-1 .5-1 1s.5 1 1 1 1-.5 1-1-.5-1-1-1z" fill="#000" />
    <path fill-rule="evenodd" clip-rule="evenodd"
        d="M1.75 6C.75 6 0 6.75 0 7.75v14.5C0 23.25.75 24 1.75 24h18.5c1 0 1.75-.75 1.75-1.752V18h.5c1 0 1.5-.5 1.5-1.5v-4c0-1-.5-1.5-1.5-1.5H22V7.75c0-1-.75-1.75-1.754-1.75H1.75zM18 11h2.5V7.75c0-.183-.116-.25-.254-.25H1.75c-.15 0-.25.1-.25.25v14.5c0 .15.1.25.25.25h18.5c.15 0 .25-.1.25-.252V18H18c-2 0-3.5-1.5-3.5-3.5S16 11 18 11zm0 1.5c-1 0-2 1-2 2s1 2 2 2h4c.25 0 .5-.25.5-.5v-3c0-.254-.25-.5-.5-.5h-4z"
        fill="#000" />
    <path
        d="M2.374 6h3.92l10.284-4.26c.128-.053.26-.036.33.135l.154.369L8 6h3.918l5.715-2.377L18.618 6h1.628l-1.951-4.7c-.383-.924-1.363-1.33-2.29-.946L2.374 6z"
        fill="#000" />
</svg>
